<?xml version="1.0" encoding="UTF-8"?>
<svg enable-background="new 0 0 945 854" version="1.1" viewBox="0 0 945 854" xml:space="preserve" xmlns="http://www.w3.org/2000/svg">
<path d="m218 588c0.75058 7.111 1.1213 14.308 4.0106 20.995 7.7597 17.961 21.824 28.054 40.485 32.525 21.901 5.247 43.242 1.6237 63.935-5.2326 18.826-6.2379 37.746-10.387 57.566-9.2171 14.189 0.8374 28.011 4.0577 41.488 8.4783 19.23 6.3077 38.332 13.003 57.52 19.438 24.705 8.2855 50.148 13.339 76.01 15.869 16.75 1.6386 33.629 2.67 50.483 2.0629 19.854-0.71521 39.702-1.6821 58.519-9.3787 29.162-11.928 48.995-33.114 61.436-61.561 10.366-23.701 14.544-48.633 14.66-74.479 0.10547-23.593-2.6744-46.708-8.5983-69.504-4.5886-17.658-10.775-34.758-19.115-50.944-8.3311-16.169-18.191-31.363-30.292-45.146-11.271-12.837-24.046-23.606-38.598-32.42-14.16-8.5767-29.858-13.165-45.495-18.029-29.413-9.1493-57.306-21.632-83.56-37.882-20.769-12.856-39.855-27.829-58.539-43.472-10.746-8.9965-21.25-18.377-33.389-25.645-16.548-9.9076-32.084-9.5477-48.15 1.8659-14.398 10.229-25.995 22.596-33.738 38.244-6.4011 12.937-9.243 27.064-10.641 41.432-1.8129 18.633-1.1687 37.328-1.5795 55.999-0.43329 19.691-1.5097 39.297-6.7822 58.539-5.0547 18.447-13.324 35.057-25.164 49.94-6.7638 8.5026-14.428 16.206-21.918 24.074-17.019 17.878-32.217 37.189-44.023 58.966-7.7308 14.261-14.023 29.068-15.54 45.483-0.26262 2.8398-0.65666 5.6676-0.98999 8.5009" fill="none" stroke="#faf6e1" stroke-linecap="round" stroke-linejoin="round" stroke-width="4"/>
<path d="m431.5 286.5c-7.188-0.006409-12.739 3.903-17.956 8.0559-14.731 11.728-22.344 27.293-24.075 45.941-0.84982 9.1577-0.97522 18.321-0.98657 27.503-0.01654 13.402-0.40781 26.793-3.0005 39.997-3.2964 16.787-11.116 31.294-23.029 43.458-10.819 11.047-20.947 22.623-29.431 35.56-7.5374 11.494-13.682 23.563-15.565 37.48-2.5603 18.928 7.4177 35.124 27.534 39.54 12.796 2.8092 25.272 1.0941 37.479-2.6281 11.795-3.5967 23.502-6.9043 36.031-6.4779 8.9249 0.30365 17.586 2.0748 25.959 4.6947 17.097 5.3493 33.648 12.503 51.071 16.742 15.707 3.8205 31.646 6.4073 47.964 6.7898 14.763 0.34607 29.488 0.91962 43.991-2.2145 19.439-4.2009 33.805-15.548 44.022-32.435 8.7494-14.46 12.399-30.234 13.636-46.995 1.6509-22.373-1.6052-43.988-8.7652-64.97-7.8217-22.921-20.41-43.057-38.93-58.983-11.122-9.5646-24.43-15.023-38.433-19.114-26.24-7.6656-50.124-19.967-72.109-36.319-12.784-9.5092-24.042-20.887-37.399-29.638-5.195-3.4037-10.585-6.1321-17.008-5.9872" fill="none" stroke="#faf6e1" stroke-linecap="round" stroke-linejoin="round" stroke-width="4"/>
<path d="m402.5 373.5c-0.10886 14.778 0.017059 29.58-4.0048 43.999-2.8473 10.208-7.5517 19.501-14.533 27.468-9.5107 10.854-20.136 20.758-27.957 33.036-7.5127 11.792-13.973 23.858-14.104 38.496-0.12299 13.722 8.5204 24.566 22.595 28.019 11.467 2.8135 22.53 1.2305 33.512-2.4943 14.708-4.9882 29.651-6.8165 44.998-3.0472 10.794 2.651 21.018 6.9518 31.495 10.521 20.267 6.9034 40.945 11.628 62.499 11.485 9.1674-0.060486 18.382 0.21728 27.488-0.61774 11.271-1.0336 21.754-5.1052 30.454-12.434 16.944-14.274 23.857-33.387 25.6-54.927 1.8133-22.41-2.0686-43.862-10.594-64.482-9.4536-22.866-23.869-41.72-46.522-52.87-7.6967-3.7883-16.21-5.9698-24.435-8.6217-20.964-6.7589-39.709-17.568-56.968-31.058-8.9605-7.004-17.333-14.809-26.606-21.352-13.724-9.683-22.048-6.6171-32.84 1.977-13.137 10.462-18.571 24.986-19.58 41.404-0.30746 5.0016-0.66263 10-0.99597 15" fill="none" stroke="#faf6e1" stroke-linecap="round" stroke-linejoin="round" stroke-width="4"/>
<path d="m338.5 19c-18.918 2.443-34.519 12.186-48.878 23.652-16.095 12.852-30.05 27.93-40.627 45.844-12.534 21.227-19.74 44.265-23.504 68.502-3.3454 21.543-4.4613 43.221-4.5882 65.001-0.047592 8.1702 0.00505 16.336-0.025254 24.5-0.11156 30.055-0.45088 60.139-4.4256 89.994-6.2627 47.041-22.407 90.004-52.889 127.06-9.6226 11.697-20.087 22.577-30.607 33.406-29.968 30.847-56.8 64.178-78.794 101.14-10.46 17.578-19.089 36.235-25.146 55.909-4.6631 15.146-7.7395 30.607-7.9845 46.496-0.45143 29.28 9.0874 54.582 31.562 73.891 14.441 12.407 31.645 19.627 50.401 23.138 12.245 2.292 24.58 3.2802 37.005 2.9401 18.677-0.51117 36.987-3.7424 54.983-8.5375 17.938-4.7798 35.212-11.746 53.489-15.571 22.205-4.6472 44.384-6.245 67.04-4.4999 33.066 2.5471 64.023 12.804 95.029 23.524 34.268 11.848 68.247 24.53 103.41 33.817 30.501 8.0561 61.343 13.851 92.568 17.674 16.735 2.0492 33.592 3.1311 50.481 3.727 17.674 0.6236 35.343 0.50732 53.002 0.28674 17.203-0.21478 34.48-0.81226 51.483-3.5043 34.68-5.4907 66.402-18.217 94.029-40.372 27.355-21.936 46.84-49.876 60.807-81.594 9.1189-20.709 15.233-42.514 19.291-64.9 3.9636-21.867 5.6628-43.851 5.9137-66.019 0.42133-37.239-4.1247-73.819-12.873-110.04-6.1732-25.556-14.329-50.334-24.636-74.47-14.258-33.388-32.646-64.226-55.442-92.552-26.342-32.732-57.833-58.916-95.59-77.405-15.65-7.6635-32.31-12.641-48.977-17.552-26.098-7.6898-51.56-17.02-76.581-27.807-25.281-10.899-49.745-23.248-73.393-37.229-29.417-17.392-57.165-37.2-83.536-58.942-20.467-16.873-40.811-33.904-61.559-50.426-13.516-10.763-27.766-20.475-44.407-26.165-8.3866-2.8673-16.9-3.0115-25.528-2.9172" fill="none" stroke="#faf6e1" stroke-linecap="round" stroke-linejoin="round" stroke-width="4"/>
<path d="m348.5 41c-19.435 1.9457-34.856 11.97-49.564 23.922-16.902 13.735-30.708 29.755-41.044 49.021-9.9785 18.599-15.66 38.415-18.853 59.064-3.0466 19.702-4.1516 39.552-4.0875 59.494 0.058869 18.333-0.078567 36.671-0.49786 54.999-0.72975 31.898-3.2315 63.635-12.026 94.481-6.6312 23.259-16.719 45.011-30.419 65.027-8.1944 11.972-17.357 23.217-27.599 33.404-22.685 22.563-43.854 46.419-62.843 72.14-15.232 20.632-28.548 42.46-39.124 65.925-8.1584 18.102-14.379 36.806-16.306 56.539-3.088 31.608 4.6215 59.877 29.442 81.395 13.974 12.115 30.807 18.777 48.924 22.072 34.832 6.3347 68.501 0.5697 101.47-10.565 22.489-7.5953 45.318-13.424 69.034-14.824 23.847-1.4076 47.397 1.4025 70.483 7.4512 36.055 9.4465 70.607 23.503 105.96 35.101 30.529 10.014 61.376 18.469 93.049 23.845 21.202 3.5985 42.507 6.1577 63.989 7.6442 22.664 1.5682 45.339 2.5344 68.004 1.7156 23.488-0.84863 47.032-1.6177 70.027-7.7679 26.272-7.0267 50.097-18.447 71.022-36.029 27.726-23.296 46.62-52.434 59.568-86.009 10.778-27.948 16.5-56.877 18.834-86.547 3.8676-49.168-1.8336-97.501-14.609-144.95-5.6739-21.075-13.262-41.587-22.244-61.586-13.641-30.372-30.586-58.723-51.712-84.36-20.996-25.479-45.64-47.054-74.404-63.558-19.447-11.158-40.517-18.345-61.967-24.576-23.173-6.7317-45.772-15.089-68.027-24.424-17.559-7.3652-34.744-15.499-51.463-24.578-25.08-13.62-49.032-29.037-72.032-45.946-21.226-15.605-41.252-32.683-61.559-49.43-14.678-12.105-29.151-24.524-45.392-34.645-9.543-5.9465-19.74-10.201-30.569-12.806-4.1341-0.99468-8.6342-0.46805-12.968-0.63472" fill="none" stroke="#faf6e1" stroke-linecap="round" stroke-linejoin="round" stroke-width="4"/>
<path d="m355 63.5c-17.962 2.1251-32.46 11.312-46.007 22.491-13.559 11.189-25.462 23.812-34.505 39.002-8.6466 14.524-14.79 29.994-18.539 46.496-3.8194 16.812-5.8571 33.816-6.4307 51.012-0.42802 12.83-1.2534 25.683-0.87813 38.495 0.49385 16.862-0.086319 33.699-0.80638 50.497-1.2695 29.614-5.03 58.883-15.267 87.032-8.1604 22.439-19.554 42.94-34.56 61.482-11.453 14.152-24.764 26.578-37.009 39.993-23.045 25.247-44.325 51.872-61.404 81.555-11.123 19.332-20.476 39.536-25.606 61.443-5.5348 23.637-6.2561 47.157 4.6504 69.434 12.101 24.717 33.129 38.577 59.367 45.043 17.643 4.3483 35.498 4.1995 53.502 2.6138 20.628-1.8168 40.054-8.0204 59.525-14.491 16.353-5.4346 33.255-8.7158 50.469-10.084 28.548-2.2685 56.178 2.2949 83.534 10.366 32.092 9.4685 63.06 22.142 94.937 32.207 30.015 9.4777 60.463 17.055 91.545 21.798 23.659 3.6104 47.493 5.5465 71.475 6.3337 19.702 0.64661 39.355 0.24622 59.003-0.35242 21.232-0.64691 42.31-3.5967 62.453-10.515 19.175-6.5856 36.858-16.175 52.6-29.293 26.585-22.152 44.895-49.966 56.884-82.084 9.5024-25.456 15.059-51.836 17.115-78.972 1.2249-16.163 1.6722-32.321 0.93115-48.503-0.97119-21.209-3.8253-42.174-7.9234-63.012-5.2401-26.645-13.216-52.469-23.695-77.431-9.199-21.912-20.565-42.755-33.776-62.615-13.617-20.471-29.661-38.784-47.653-55.37-15.993-14.744-34.074-26.742-53.491-36.457-16.178-8.0938-33.656-12.968-50.962-18.049-18.056-5.3013-35.564-12-53.01-18.992-22.559-9.0413-44.312-19.692-65.451-31.609-22.881-12.899-44.548-27.666-65.521-43.464-24.24-18.259-46.766-38.625-70.559-57.426-11.48-9.0712-23.266-17.828-36.929-23.602-8.8261-3.7302-18.002-5.193-27.511-4.973" fill="none" stroke="#faf6e1" stroke-linecap="round" stroke-linejoin="round" stroke-width="4"/>
<path d="m359.5 86c-34.724 9.2881-57.914 32.676-75.399 62.559-10.509 17.961-15.47 37.872-18.159 58.433-2.086 15.952-2.7545 31.937-3.0763 48.005-0.31039 15.504 0.007782 31.008-0.40457 46.502-0.71176 26.747-2.2916 53.396-8.9215 79.511-6.9361 27.321-18.715 52.222-36.03 74.498-8.8629 11.402-18.986 21.655-29.028 31.975-24.656 25.337-46.71 52.772-64.825 83.111-11.425 19.134-20.708 39.461-25.612 61.416-4.0272 18.029-4.8605 36.122 0.98343 53.981 5.8986 18.026 16.938 31.86 33.423 41.592 15.219 8.985 31.663 13.029 49.051 13.889 23.631 1.1691 46.535-2.7761 69.014-9.9254 15.42-4.9044 30.828-9.7299 46.961-12.203 18.379-2.8178 36.697-3.2924 55.012-0.75488 24.627 3.4121 48.21 10.98 71.508 19.422 39.022 14.138 78.17 27.945 119.03 35.879 21.78 4.2299 43.79 7.063 65.97 8.7258 23.001 1.7244 46.01 1.6442 69.007 1.2563 24.42-0.4118 48.784-2.3448 71.98-10.933 16.681-6.1757 32.184-14.556 46.053-25.902 20.309-16.614 35.617-37.06 46.928-60.557 10.307-21.411 16.619-44.076 20.593-67.471 2.7024-15.91 3.6114-31.932 3.9203-48.009 0.35071-18.254-0.94312-36.389-3.3639-54.514-3.3495-25.078-9.0863-49.507-17.05-73.505-10.342-31.167-24.652-60.315-43.058-87.481-12.616-18.621-27.264-35.529-44.06-50.432-20.49-18.18-43.453-32.538-69.467-41.49-13.851-4.7666-28.054-8.5028-41.954-13.135-19.605-6.5327-38.74-14.271-57.544-22.889-32.724-14.999-63.37-33.475-92.451-54.587-16.418-11.919-31.954-24.966-47.56-37.924-14.801-12.289-29.386-24.873-45.458-35.553-13.8-9.1707-28.476-15.274-45.507-13.489" fill="none" stroke="#faf6e1" stroke-linecap="round" stroke-linejoin="round" stroke-width="4"/>
<path d="m371.5 108c-18.523 1.5898-32.546 11.926-46.022 23.474-13.693 11.734-24.217 25.675-32.116 41.959-7.9629 16.414-12.009 33.761-14.259 51.58-2.4695 19.56-2.6888 39.284-2.5891 58.987 0.13785 27.26-0.1687 54.499-4.5344 81.497-5.5231 34.154-18.282 65.128-40.424 92.048-7.3705 8.9609-15.532 17.124-23.518 25.49-23.053 24.149-44.214 49.885-61.383 78.557-10.352 17.287-19 35.625-23.559 55.43-4.3878 19.062-5.8031 38.099 1.8046 57.019 6.9425 17.265 18.918 29.709 35.162 37.838 19.967 9.9922 41.526 11.47 63.439 9.617 21.12-1.7863 40.948-8.7665 61.031-14.895 20.141-6.1461 40.906-8.6423 61.966-7.5428 17.383 0.90741 34.442 4.3517 50.957 9.5875 24.512 7.771 48.756 16.397 73.035 24.886 29.976 10.481 60.731 17.885 92.034 22.826 16.348 2.5806 32.904 3.8248 49.472 4.7343 15.67 0.86017 31.354 1.4169 47 0.77264 19.612-0.80762 39.27-1.2446 58.535-6.2498 21.518-5.5906 41.224-14.506 58.465-28.621 20.704-16.951 35.856-38.018 46.535-62.48 10.536-24.134 16.487-49.382 18.959-75.514 1.368-14.466 2.2228-28.999 1.3749-43.491-0.74292-12.698-1.877-25.381-3.6926-38.033-3.1324-21.827-8.2136-43.1-15.169-63.976-12.277-36.846-29.882-70.747-54.425-101.06-21.276-26.278-46.604-47.301-77.109-61.869-13.22-6.3128-27.438-9.9894-41.47-14.057-17.769-5.1512-34.989-11.772-52.007-18.989-22.086-9.3662-43.425-20.194-63.973-32.551-18.095-10.882-35.395-22.989-51.953-36.053-20.269-15.993-39.9-32.793-60.132-48.833-10.402-8.2463-21.258-15.898-34.389-19.734-5.5075-1.6089-10.936-2.2269-16.543-2.3521" fill="none" stroke="#faf6e1" stroke-linecap="round" stroke-linejoin="round" stroke-width="4"/>
<path d="m376 130.5c-16.554 2.7568-29.424 12.228-41.473 23.03-12.282 11.01-22.12 23.902-29.043 38.963-7.455 16.219-11.184 33.353-12.999 51.006-2.1541 20.957-1.9498 41.981-1.9909 63.002-0.044555 22.784-0.89423 45.5-4.9664 68.005-5.238 28.948-16.28 55.252-34.477 78.535-9.0508 11.581-19.609 21.728-29.574 32.438-24.628 26.471-46.728 54.738-62.451 87.534-8.6359 18.012-14.755 36.901-14.887 56.989-0.22032 33.425 19.119 59.231 52.348 68.55 9.0363 2.5342 18.262 4.0937 27.518 4.2746 12.247 0.23938 24.425-1.4308 36.509-3.7625 15.417-2.9752 29.762-9.5136 44.989-13.059 18.784-4.3732 37.669-6.1027 57.013-4.1385 22.879 2.3233 44.469 9.1185 66.004 16.582 30.69 10.637 61.116 22.124 92.973 29.095 23.115 5.0584 46.373 8.8017 69.999 10.589 14.335 1.0845 28.705 1.6738 43.009 1.6357 23.477-0.0625 47.075-0.43042 69.998-6.7781 31.254-8.6547 56.632-25.73 76.088-51.926 18.579-25.015 28.208-53.444 33.907-83.565 4.1631-22.003 4.2927-44.299 3.2964-66.489-0.91644-20.408-4.1876-40.612-9.1896-60.534-5.6316-22.431-12.992-44.146-23.045-65.001-11.087-23.002-24.507-44.344-41.469-63.549-14.372-16.272-30.471-30.211-49.037-41.505-15.533-9.4486-32.31-15.795-49.581-20.809-19.819-5.7541-39.02-12.963-58.014-21.001-33.011-13.969-63.622-31.978-92.42-53.155-12.896-9.483-25.223-19.71-37.586-29.891-14.77-12.164-28.973-25.047-45.394-35.15-11.015-6.7766-22.501-10.906-35.553-9.9136" fill="none" stroke="#faf6e1" stroke-linecap="round" stroke-linejoin="round" stroke-width="4"/>
<path d="m382.5 153c-13.432 2.8258-24.209 10.277-34.577 18.907-14.04 11.686-24.404 25.88-31.391 42.606-6.2735 15.018-9.1071 30.845-10.552 46.985-1.937 21.639-1.0901 43.332-1.5549 65-0.51019 23.783-2.1851 47.429-8.8268 70.53-5.5094 19.163-14.217 36.583-26.127 52.45-6.9592 9.2708-14.783 17.803-22.944 26.049-17.746 17.932-33.75 37.308-47.519 58.479-13.341 20.512-24.372 41.992-28.553 66.487-3.5459 20.776-1.192 40.09 12.536 57.015 10.772 13.28 25.233 20.133 41.521 23.43 20.904 4.2313 41.613 2.032 61.965-3.5192 13.069-3.5649 25.695-8.6912 39.022-11.42 20.168-4.1296 40.276-3.8995 60.516-0.08252 20.673 3.8987 40.275 11.077 60.003 18.03 24.481 8.6284 49.018 17.053 74.457 22.661 18.362 4.0484 36.852 7.1497 55.533 8.7843 24.276 2.1241 48.63 2.0121 72.993 1.1851 16.781-0.56976 33.075-3.0194 49.028-8.4875 21.998-7.5402 40.015-20.339 55.064-38.008 13.914-16.335 23.304-34.956 29.824-55.107 6.2402-19.286 9.2908-39.142 10.308-59.462 0.60406-12.062 0.20679-24.034-0.36322-36.005-0.52753-11.076-2.3289-22.065-4.2969-33.019-4.1523-23.11-10.98-45.333-19.953-67.035-7.9455-19.219-18.112-37.11-30.177-53.908-19.105-26.6-42.745-48.128-72.441-62.538-12.311-5.9737-25.472-9.5146-38.468-13.597-16.662-5.2344-33.034-11.31-49.05-18.36-26.237-11.55-51.059-25.475-74.548-41.95-14.828-10.401-28.861-21.749-42.961-33.061-13.521-10.848-26.291-22.607-40.891-32.158-11.418-7.4697-23.283-12.133-37.079-10.879" fill="none" stroke="#faf6e1" stroke-linecap="round" stroke-linejoin="round" stroke-width="4"/>
<path d="m392.5 175c-17.942 2.6978-30.977 13.689-42.939 26.059-17.327 17.917-25.507 40.043-28.611 64.435-2.5381 19.95-2.3757 39.973-2.4677 60.006-0.08606 18.75-0.74097 37.452-3.942 56.007-4.6971 27.227-15.041 51.885-33.108 72.935-8.4419 9.8359-17.692 18.974-26.414 28.575-18.281 20.126-34.742 41.595-46.976 66.004-8.3469 16.654-14.464 34.07-14.488 52.978-0.029343 23.098 10.033 41.012 30.066 52.284 10.066 5.6636 21.496 8.2899 33.374 8.8244 22.217 0.99982 43.154-4.1431 64.058-10.946 19.232-6.2591 39.022-8.4908 59.47-6.3802 19.633 2.0265 38.12 7.7849 56.449 14.299 29.449 10.465 58.875 21.071 89.562 27.254 17.92 3.6108 36.153 5.5452 54.458 6.7977 16.348 1.1185 32.688 1.1357 49.006 0.7356 22.293-0.54663 44.24-3.6075 64.493-13.887 26.385-13.392 44.762-34.24 57.078-60.949 9.0458-19.616 14.197-40.239 16.267-61.548 1.4656-15.084 1.4251-30.251 0.36432-45.498-2.1576-31.011-9.1125-60.84-20.845-89.427-13.073-31.852-31.268-60.576-56.891-84.02-19.564-17.9-42.511-29.856-67.968-37.026-41.372-11.653-79.83-29.631-115.45-53.578-17.559-11.804-33.88-25.268-50.132-38.829-11.684-9.7491-23.077-19.96-36.385-27.651-8.5703-4.9528-17.52-8.0311-27.526-7.4553" fill="none" stroke="#faf6e1" stroke-linecap="round" stroke-linejoin="round" stroke-width="4"/>
<path d="m408 219.5c-16.279 2.2804-27.604 12.721-37.887 24.103-14.087 15.593-20.049 34.776-22.148 55.394-1.7454 17.143-1.1648 34.329-1.523 51.502-0.44153 21.172-1.6275 42.288-8.9411 62.502-5.187 14.336-12.294 27.581-22.516 38.986-14.191 15.834-29.587 30.617-41.976 48.02-12.341 17.334-23.154 35.448-28.001 56.495-3.5277 15.321-3.3705 30.311 5.5412 43.965 10.527 16.13 26.474 22.314 44.949 23.546 18.007 1.2006 35.177-2.8232 51.981-8.5714 22.442-7.6767 45.07-8.4157 68.019-2.9392 21.913 5.2293 42.609 14.17 63.973 21.084 23.675 7.6615 47.845 12.757 72.534 15.356 20.279 2.1346 40.671 1.8738 60.988 0.93286 21.826-1.0109 42.214-7.0537 60.011-20.369 15.223-11.389 25.959-26.315 33.41-43.543 7.8339-18.115 11.611-37.151 12.747-56.954 1.7315-30.177-2.4656-59.494-11.829-87.954-9.1774-27.894-23.004-53.323-43.221-75.158-14.035-15.158-30.071-27.158-49.159-34.778-11.239-4.4865-22.954-7.7806-34.452-11.62-24.59-8.212-47.615-19.574-69.567-33.393-16.825-10.591-32.183-22.972-47.49-35.537-11.23-9.2179-21.799-19.333-34.9-26.153-6.3837-3.323-12.893-5.1855-20.044-4.9162" fill="none" stroke="#faf6e1" stroke-linecap="round" stroke-linejoin="round" stroke-width="4"/>
<path d="m414.5 242c-15.325 3.1078-25.947 13.153-35.449 24.543-11.771 14.11-15.86 31.158-17.535 48.959-1.3304 14.137-0.72983 28.331-1.0933 42.496-0.36099 14.068-0.92294 28.117-3.8339 42.021-4.5693 21.825-14.645 40.504-30.067 56.503-16.032 16.631-31.519 33.737-43.002 53.99-7.1834 12.67-13.132 25.726-15.124 40.475-3.4481 25.536 9.6776 44.928 33.571 51.14 17.861 4.6436 35.009 2.3708 52.015-3.1812 15.149-4.9456 30.437-8.7603 46.517-7.916 10.218 0.5365 20.141 2.6777 30.025 5.3841 19.152 5.2435 37.383 13.173 56.447 18.689 18.064 5.2267 36.306 8.9122 55.007 11.093 16.354 1.9075 32.675 1.9712 49.021 1.7099 17.166-0.27441 33.989-2.6838 49.514-10.882 15.177-8.0152 27.175-19.406 35.94-34.052 11.853-19.805 16.862-41.545 18.144-64.466 1.5269-27.298-2.4699-53.756-11.18-79.477-10.217-30.173-25.979-57-50.453-77.985-13.842-11.869-29.887-19.649-47.448-24.595-30.298-8.5327-58.407-21.834-84.54-39.411-15.82-10.64-30.272-22.983-45.025-34.975-6.4849-5.2713-12.898-10.615-20.351-14.741-6.5903-3.6483-13.192-5.6261-20.599-5.3209" fill="none" stroke="#faf6e1" stroke-linecap="round" stroke-linejoin="round" stroke-width="4"/>
<path d="m423.5 264c-20.956 4.9789-33.682 19.194-41.929 38.031-5.9723 13.641-6.79 28.333-7.0142 42.97-0.26071 17.022 0.33713 34.082-2.0943 50.994-2.9591 20.582-10.573 39.027-24.906 54.557-13.496 14.623-27.637 28.768-38.042 45.957-7.8959 13.044-14.606 26.432-16.653 41.973-2.7795 21.101 8.6024 40.076 31.636 45.032 16.33 3.5131 32.109 0.86157 47.48-4.5784 23.317-8.252 46.275-7.3915 69.563 0.44519 22.477 7.5637 44.551 16.578 67.972 21.058 11.716 2.2409 23.486 4.1172 35.481 4.7086 9.0049 0.44409 18.005 1.1566 27.005 0.78882 13.65-0.5578 27.521-0.6839 40.459-5.5507 21.081-7.9297 36.448-22.427 46.038-42.887 13.005-27.745 13.55-56.87 9.5083-86.498-2.5983-19.048-8.4191-37.227-16.707-54.401-6.1429-12.729-13.977-24.594-23.696-35.19-10.546-11.498-22.499-20.775-36.585-27.44-9.9462-4.7063-20.758-6.7174-31.047-10.377-27.13-9.649-52.127-22.986-75.043-40.493-13.209-10.091-25.21-21.661-38.916-31.111-6.6573-4.5901-13.707-7.9831-22.009-7.9876" fill="none" stroke="#faf6e1" stroke-linecap="round" stroke-linejoin="round" stroke-width="4"/>
</svg>